<svg width="96" height="96" viewBox="0 0 96 96" fill="none" xmlns="http://www.w3.org/2000/svg">
<rect width="96" height="96" rx="10" fill="white"/>
<path d="M31.5331 41.1346C32.6971 40.2576 34.6404 40.4149 35.8191 39.5268C36.876 38.7305 38.9529 38.5593 39.6587 37.394" stroke="black" stroke-linecap="round"/>
<path d="M39.6588 37.394C39.509 39.2401 39.0322 41.2574 38.4807 43.0427C37.9771 44.6728 37.3581 46.9097 36.1504 48.1634C35.5157 48.8223 35.0295 49.8398 34.5583 50.5465C34.3173 50.908 33.5985 51.1513 34.2319 51.3892C34.62 51.5349 34.9389 51.9218 35.4213 51.961C36.3253 52.0343 36.716 52.9883 37.6494 53.1195C37.8322 53.1452 39.4447 54.3697 39.4937 54.4914" stroke="black" stroke-linecap="round"/>
<path d="M39.4542 54.977C38.5375 55.0043 36.9549 55.5914 36.6486 56.5827C36.0792 58.426 37.8744 58.271 39.1783 58.3768C40.0841 58.4503 40.9554 57.5637 41.026 56.6934C41.1377 55.3168 40.3405 54.8045 38.9882 54.6948" stroke="black" stroke-linecap="round"/>
<path d="M42.796 37.893C43.6195 37.9598 44.932 39.0566 45.5335 39.636C46.2367 40.3134 47.09 41.0035 47.8824 41.4834" stroke="black" stroke-linecap="round"/>
<path d="M28.4678 45.7746C29.6537 44.8696 31.1494 44.4108 32.5262 43.9583C33.5546 43.6203 34.9578 43.1235 36.0092 43.2088" stroke="black" stroke-linecap="round"/>
<path d="M41.3123 44.128C43.0642 44.2702 44.7325 44.2429 46.2179 45.2594C47.4001 46.0684 48.5827 47.0031 49.8181 47.7515" stroke="black" stroke-linecap="round"/>
<path d="M15.6396 34.3601C12.8573 33.7902 12.5725 27.7803 12.7784 25.5343C13.0159 22.9427 14.7925 18.9088 17.4439 18.01C18.642 17.6038 20.3113 16.2093 21.6064 15.6049C23.4798 14.7305 24.864 15.0199 27.0449 15.2198C30.7688 15.5611 31.9704 17.2015 34.4285 19.5667C36.0262 21.104 36.6057 25.8446 36.4076 28.0058C36.135 30.9799 41.612 28.7887 43.6589 28.9763C47.205 29.3013 51.1264 29.3126 54.2554 30.5252C56.9824 31.5819 59.7409 32.8581 62.1296 34.3393" stroke="black" stroke-linecap="round"/>
<path d="M62.625 35.608C62.5666 32.577 59.7292 29.8536 59.7761 26.6474C59.7989 25.092 59.4291 23.7596 59.5772 22.1435C59.7884 19.8397 60.5682 20.1908 61.1515 18.6856C61.918 16.7076 67.6962 16.7138 69.3 16.1701C70.5966 15.7306 71.946 15.665 73.3108 15.7901C74.7991 15.9265 75.5863 17.222 76.8391 17.3369C79.3895 17.5706 80.3404 21.0632 81.8905 22.6593C83.7864 24.6116 82.879 28.1882 82.6474 30.7146C82.1467 36.1783 76.6797 37.4313 72.7146 38.9795" stroke="black" stroke-linecap="round"/>
<path d="M18.3793 20.3654C18.2391 21.4871 16.6585 21.3354 16.6585 22.5164C16.6585 23.8891 16.436 24.8753 16.2044 26.1492C15.831 28.2031 15.2406 30.6337 16.7541 32.3155C18.6481 34.4199 22.5719 33.7017 25.0474 33.7017C28.3906 33.7017 28.6306 31.2103 31.0464 29.8298C33.1491 28.6283 33.0062 25.3792 33.0062 23.3768C33.0062 20.9724 30.6138 19.4561 28.4652 18.4534C25.5631 17.0991 23.4106 17.0241 20.5303 18.549C18.9971 19.3607 16.8122 20.7647 16.2283 22.5164" stroke="black" stroke-linecap="round"/>
<path d="M65.7016 19.9352C63.7109 20.1564 62.26 23.3826 62.26 25.0976C62.26 26.7078 61.5467 30.9122 62.5946 32.0765C63.4358 33.0112 63.5919 33.9967 64.6261 34.8011C65.8609 35.7615 66.8203 35.8135 68.0916 36.3785C69.3773 36.9499 74.1718 37.3805 75.0704 35.8527C76.212 33.912 77.9654 31.7278 79.3725 30.1645C80.5104 28.9001 79.4631 24.0848 78.1775 23.2812C76.6438 22.3227 66.2133 16.7607 64.8412 19.505" stroke="black" stroke-linecap="round"/>
<path d="M20.9605 22.5164C19.7053 22.5164 18.8095 24.0414 18.8095 25.3127C18.8095 27.1564 19.0651 28.2926 20.0045 29.8299C20.9546 31.3845 24.2828 31.4577 25.9079 31.0966C27.4496 30.754 29.3398 27.7467 29.5407 26.3404C29.7167 25.1081 29.6736 21.7636 27.8438 21.656C26.2824 21.5642 21.3497 20.8436 20.5303 22.2774C20.0636 23.0943 19.2397 23.1985 19.2397 24.2372C19.2397 25.6652 19.977 26.2652 20.9605 27.2486C23.084 29.3721 25.9587 28.8276 27.318 25.958C28.3209 23.8408 26.5219 22.5164 24.6172 22.5164C22.3963 22.5164 19.4512 25.0825 21.1517 27.5832C21.8761 28.6486 23.2317 28.0656 23.7568 27.2486C24.5878 25.956 24.4021 24.6543 24.4021 23.1617C24.4021 21.6381 22.7833 22.9587 22.4423 23.5919C22.0335 24.3512 20.8089 29.2419 22.8725 28.4915C24.4559 27.9157 24.7819 22.3537 22.5857 22.5164C21.2066 22.6186 19.2397 24.5621 19.2397 25.958C19.2397 27.4427 20.9618 27.6286 21.5819 26.3882C22.0744 25.4033 21.8209 24.013 21.8209 22.9466C21.8209 21.5343 20.0586 25.4067 20.1001 26.8184C20.16 28.8551 24.1128 27.4918 23.9719 25.0976C23.8447 22.9343 18.4481 28.5393 21.1756 28.5393C23.954 28.5393 24.8229 21.7815 21.2951 26.1492C17.891 30.3639 23.9908 29.4638 24.3782 26.3643C25.1106 20.5058 19.5305 33.6502 23.7329 29.8299C25.7516 27.9948 25.9232 24.1442 22.2511 26.0536C21.3505 26.522 19.2076 29.6183 21.3907 29.3758C23.0052 29.1964 24.9468 27.372 25.2387 25.7668C25.4067 24.8427 22.6505 26.5687 22.6813 28.1091C22.7136 29.7234 25.5732 29.9494 26.5532 28.9695C27.1449 28.3777 27.377 25.8737 26.7922 25.2888C25.4625 23.9592 22.8536 27.4638 23.7329 28.0135C24.8736 28.7264 28.5637 22.3226 26.3142 21.6799C24.528 21.1696 22.3272 22.6315 21.1517 23.807C19.8443 25.1144 21.2049 26.3528 22.5857 25.4322C24.426 24.2054 21.4005 20.0622 20.9844 23.807C20.8253 25.2389 22.1453 26.1057 23.5178 25.9341C25.082 25.7386 24.9076 23.1764 24.8084 22.0862C24.6868 20.7476 23.7521 18.773 22.6813 20.7956C22.6252 20.9016 21.4848 24.6901 22.5857 23.7114C22.9474 23.39 22.0476 22.2799 21.797 23.7831C21.6447 24.6972 20.6561 23.0642 20.5542 22.7076C19.699 19.7143 22.321 19.9352 24.4021 19.9352C26.8971 19.9352 28.8611 19.6998 26.9834 22.5164" stroke="black" stroke-linecap="round"/>
<path d="M66.9922 23.3769C64.0986 23.6984 63.5506 28.7718 63.5506 30.9054C63.5506 34.0818 68.602 36.2994 71.2942 35.0879C72.7558 34.4302 76.6633 33.4506 76.8869 31.5507C77.1077 29.6735 77.9377 27.3914 76.2655 25.7191C74.7646 24.2183 69.8584 22.1828 67.4224 23.4725C66.3341 24.0486 65.3153 25.7283 65.2714 26.9141C65.2293 28.0508 64.2894 29.2757 65.4626 30.1645C66.6206 31.0418 68.3884 31.1205 69.7646 31.1205C72.1552 31.1205 74.7195 25.033 73.1823 24.6914C70.8728 24.1781 68.2524 24.4356 67.518 26.9141C66.9308 28.8959 66.8079 32.8582 69.2388 33.6061C71.7427 34.3766 74.2212 27.0951 72.7999 25.9581C70.9958 24.5148 69.3253 25.0117 68.2828 27.4877C67.8288 28.5659 67.0201 30.0739 67.4702 31.3117C67.8237 32.2839 70.9121 32.2505 71.6288 31.7897C73.1594 30.8058 73.853 28.5039 74.4012 26.9141C74.8959 25.4795 74.4478 25.4114 73.015 25.0021C72.0457 24.7251 70.9334 23.6085 69.908 24.5241C68.7089 25.5947 67.6482 27.0662 67.8765 28.7783C68.168 30.9647 72.0625 35.3747 74.5207 33.4627C76.0524 32.2715 77.1663 26.2375 75.5962 24.6675C74.1613 23.2326 69.8167 22.11 68.1872 23.6637C66.5542 25.2207 64.4295 28.1952 66.7771 30.0211C67.5605 30.6304 69.2722 30.2601 70.2187 30.2601C71.2872 30.2601 71.2942 28.6259 71.2942 27.8223C71.2942 26.294 71.7844 24.4316 70.4099 23.4008C68.7765 22.1757 67.7788 24.5104 67.0878 25.6713C65.6906 28.0186 67.2561 30.6903 69.908 30.6903C71.1521 30.6903 71.6103 30.8294 72.1546 29.6387C72.7262 28.3884 73.2228 24.7195 72.3458 23.592C71.013 21.8783 68.2828 23.818 68.2828 25.5518C68.2828 28.6085 68.3833 30.2601 71.7244 30.2601C74.7487 30.2601 75.4538 24.6806 73.8754 22.7077C72.9841 21.5935 69.9903 20.8302 68.5218 21.2498C66.5394 21.8161 66.562 24.6142 66.562 26.1732C66.562 28.1216 67.3944 29.3857 69.1432 30.2601" stroke="black" stroke-linecap="round"/>
<path d="M15.7981 34.5622C12.9939 37.7169 14.0773 43.8515 14.0773 47.8985C14.0773 50.3048 13.2169 52.3248 13.2169 54.7817C13.2169 57.578 13.2169 60.3743 13.2169 63.1707C13.2169 67.6271 16.2206 72.485 18.9051 75.766C20.4529 77.6578 22.5032 78.8166 24.3065 80.2593C26.4897 82.0058 27.8438 77.6309 27.8438 76.0767C27.8438 73.5173 26.2286 71.9277 25.7166 69.6237C25.1317 66.9916 22.6813 64.5036 22.6813 61.665C22.6813 58.741 22.2511 55.6575 22.2511 52.6307C22.2511 51.0607 22.1686 49.4655 22.2511 47.8985C22.2952 47.0604 23.534 44.3861 24.1631 44.0266C24.7336 43.7007 26.6638 41.3182 26.9594 40.7762C27.4556 39.8666 28.4549 39.1987 28.7281 38.2428C29.2076 36.5643 32.6223 35.8157 33.771 34.8968C35.4866 33.5243 38.9936 33.7018 41.18 33.7018C43.5462 33.7018 45.9123 33.7018 48.2784 33.7018C52.5562 33.7018 55.3545 37.986 58.6033 40.585C61.9718 43.2799 62.6902 50.2371 62.6902 54.3515C62.6902 59.0478 62.323 64.1959 59.4398 67.9029C58.7722 68.7612 57.3642 70.0673 56.4522 70.6753C55.5318 71.289 55.1885 72.5706 54.3012 73.2804C52.8129 74.4711 51.6728 76.6781 49.7841 77.6781C48.8275 78.1845 48.8945 79.2291 47.6331 79.3033C46.9065 79.346 45.7854 80.5105 47.2029 80.5939C49.1475 80.7083 52.0115 81.849 53.871 80.4027C54.8295 79.6572 56.4751 79.6274 57.1214 78.658C57.7042 77.7839 59.3883 76.3827 60.3002 75.8616C60.9014 75.5181 62.0112 73.7326 62.3078 73.0653C62.9931 71.5235 64.9963 70.4681 65.606 68.8828C66.5664 66.3857 68.9803 64.4352 69.1432 61.665C69.2062 60.5946 70.2971 59.3854 70.4338 58.2233C70.5475 57.257 70.5725 55.0484 71.0791 54.1364C71.5561 53.2779 71.4389 51.5866 71.7005 50.6709C72.014 49.5737 71.8345 48.266 72.1307 47.2293C72.8025 44.8781 72.5848 42.2421 72.5848 39.7246" stroke="black" stroke-linecap="round"/>
<path d="M26.5532 71.5596C28.7634 71.5596 29.1851 75.0012 31.5005 75.0012C34.4861 75.0012 37.2604 75.8616 40.3197 75.8616C42.6858 75.8616 45.0519 75.8616 47.418 75.8616C48.967 75.8616 52.521 75.5503 53.2258 74.1408" stroke="black" stroke-linecap="round"/>
<path d="M34.6956 32.3352C35.892 32.3352 36.6567 32.4113 37.6602 31.7423" stroke="black" stroke-linecap="round"/>
<path d="M45.9611 31.7423H48.9257" stroke="black" stroke-linecap="round"/>
<path d="M58.7779 80.3509C57.3691 80.3509 55.8202 81.3 55.8202 82.8116C55.8202 83.1885 55.8142 83.6504 56.1678 83.9053C56.6811 84.2754 56.7464 84.1118 57.299 83.96C58.0048 83.7661 58.7369 83.0299 58.7779 82.3195C58.8137 81.6996 58.8917 79.8394 58.8917 80.4602C58.8917 81.1495 58.8592 81.8237 59.0118 82.4835C59.0592 82.6889 59.6799 82.7393 59.8018 82.5929C60.0343 82.3134 60.1824 82.0858 60.3453 81.7726C60.4698 81.5331 60.5762 81.1653 60.459 80.8977C60.3749 80.7057 60.4045 80.4498 60.2568 80.2901C60.1811 80.2083 59.9484 80.0514 59.9218 79.962C59.8222 79.6267 58.6361 79.2054 58.2723 79.1418C57.4538 78.9987 57.12 78.8994 56.3005 79.1722C54.7981 79.6721 54 81.2642 54 82.763C54 83.1631 54.4303 83.5119 54.6889 83.802C54.8587 83.9924 55.0637 84.1371 55.2577 84.3002C55.4298 84.445 55.9371 84.731 56.035 84.8956C56.4206 85.5443 57.6122 85.6213 58.2976 85.3817C59.3696 85.007 60.2254 84.6267 60.7687 83.6865C61.0227 83.247 60.8256 82.2824 60.8256 81.7726" stroke="black" stroke-width="0.3" stroke-linecap="round"/>
<path d="M61.9898 80.1902C61.9898 81.0651 61.9898 81.9401 61.9898 82.815C61.9898 83.2466 62.2174 83.6115 62.2174 84.018C62.2174 84.7916 62.4449 83.4803 62.4449 83.2525C62.4449 82.5011 62.5582 81.3451 63.1022 80.8221C63.396 80.5396 63.4421 80.1645 63.9238 80.1902C64.1915 80.2045 64.9177 80.726 64.9476 80.9558C64.9937 81.3104 65.3099 81.8143 65.4279 82.1831C65.563 82.605 65.5164 83.0547 65.5164 83.4955C65.5164 83.9796 65.5108 83.4205 65.5733 83.2525C65.6721 82.9863 65.6302 82.6806 65.6302 82.4018C65.6302 82.0456 65.7795 81.3856 65.9462 81.0651C66.1711 80.6326 66.5184 80.409 66.9953 80.409C67.3202 80.409 67.3295 81.0847 67.5388 81.3082C67.7597 81.5442 67.7424 82.0797 67.8801 82.3775C68.0352 82.7132 67.9632 83.145 68.1329 83.4712" stroke="black" stroke-width="0.3" stroke-linecap="round"/>
<path d="M70.6356 80.409C70.1502 80.409 69.5507 80.3142 69.2704 80.7857C68.8649 81.468 68.5879 81.86 68.5879 82.6813C68.5879 83.1908 68.7495 83.4712 69.3273 83.4712C70.131 83.4712 70.2147 83.1448 70.6608 82.6206C71.0224 82.1957 70.8631 81.3317 70.8631 80.7917C70.8631 79.8187 70.8631 81.1438 70.8631 81.4783C70.8631 81.6745 70.8045 81.9774 70.8884 82.1588C70.9701 82.3357 71.2679 82.5093 71.3118 82.657C71.4008 82.9564 72.356 82.815 72.6832 82.815" stroke="black" stroke-width="0.3" stroke-linecap="round"/>
<path d="M73.4795 79.8621C73.0562 80.3143 73.0245 81.0606 73.0245 81.6667C73.0245 82.013 73.0245 82.3593 73.0245 82.7057C73.0245 83.4501 72.9016 83.0252 73.0814 82.6449C73.3764 82.0209 73.0069 81.3649 73.3911 80.7371C73.6842 80.2579 74.6754 80.0809 75.1859 80.0809" stroke="black" stroke-width="0.3" stroke-linecap="round"/>
<path d="M76.8648 80.7908C77.0131 80.7282 77.2067 80.8273 77.3568 80.7639C77.4915 80.7071 77.7097 80.7704 77.8206 80.6528" stroke="black" stroke-width="0.3" stroke-linecap="round"/>
<path d="M77.8207 80.6529C77.7439 80.8786 77.628 81.1124 77.5122 81.3141C77.4065 81.4983 77.2687 81.7539 77.1035 81.862C77.0166 81.9188 76.933 82.0268 76.8613 82.0963C76.8246 82.1318 76.743 82.133 76.7999 82.1888C76.8347 82.2229 76.8545 82.2845 76.9026 82.3091C76.9926 82.3552 77.0008 82.491 77.092 82.5456C77.1098 82.5563 77.2341 82.7759 77.235 82.7932" stroke="black" stroke-width="0.3" stroke-linecap="round"/>
<path d="M77.2148 82.8525C77.1201 82.8185 76.9387 82.8276 76.8744 82.9396C76.7548 83.1478 76.9436 83.2017 77.0735 83.2682C77.1637 83.3144 77.2824 83.2386 77.3186 83.1322C77.3758 82.9639 77.3112 82.867 77.1765 82.7981" stroke="black" stroke-width="0.3" stroke-linecap="round"/>
<path d="M78.125 80.8436C78.2071 80.8856 78.3049 81.0769 78.3471 81.1743C78.3965 81.288 78.4609 81.4095 78.526 81.5021" stroke="black" stroke-width="0.3" stroke-linecap="round"/>
<path d="M76.3969 81.2484C76.5483 81.1831 76.7166 81.1866 76.8725 81.186C76.989 81.1855 77.1491 81.1804 77.2538 81.2341" stroke="black" stroke-width="0.3" stroke-linecap="round"/>
<path d="M77.7658 81.566C77.9403 81.6554 78.1119 81.7201 78.2301 81.9083C78.3241 82.0582 78.414 82.2239 78.5155 82.3683" stroke="black" stroke-width="0.3" stroke-linecap="round"/>
<path d="M75.6447 79.8493C75.6447 80.3123 75.6838 80.8286 75.6838 81.3127C75.6838 81.6015 75.6838 81.8902 75.6838 82.179C75.6838 82.4126 75.6129 82.8736 75.6925 83.0906C75.8348 83.4789 76.1784 83.8609 76.5438 83.9249C76.7813 83.9666 77.013 84.0715 77.2561 84.0715C77.5719 84.0715 77.7558 84.0109 78.051 83.8556C78.7316 83.4976 79.0065 82.6002 79.0065 81.7472C79.0065 81.4824 79.0065 81.2176 79.0065 80.9529C79.0065 80.6721 78.9785 81.5169 79.0087 81.7952C79.0543 82.215 78.9668 82.8646 79.2107 83.1972C79.4301 83.4965 79.8389 83.4816 80.062 83.2079" stroke="black" stroke-width="0.3" stroke-linecap="round"/>
</svg>
